<svg preserveAspectRatio="none" width="100%" height="100%" overflow="visible" style="display: block;" viewBox="0 0 11.6853 14" fill="none" xmlns="http://www.w3.org/2000/svg">
<path id="Subtract" fill-rule="evenodd" clip-rule="evenodd" d="M2.84266 3C2.84266 1.34315 4.18581 0 5.84266 0C7.49952 0 8.84266 1.34315 8.84266 3V4H9.48518C10.2558 4 10.9011 4.58394 10.9777 5.35074L11.6777 12.3507C11.766 13.2338 11.0726 14 10.1852 14H1.50015C0.612713 14 -0.0807125 13.2338 0.00759033 12.3507L0.70759 5.35075C0.784271 4.58394 1.42952 4 2.20015 4H2.84266V3ZM7.34266 3V4H4.34266V3C4.34266 2.17157 5.01424 1.5 5.84266 1.5C6.67109 1.5 7.34266 2.17157 7.34266 3ZM4.34265 6.75C4.34265 6.33579 4.00687 6 3.59265 6C3.17844 6 2.84265 6.33579 2.84265 6.75V7.75C2.84265 9.40685 4.1858 10.75 5.84265 10.75C7.49951 10.75 8.84265 9.40685 8.84265 7.75V6.75C8.84265 6.33579 8.50686 6 8.09265 6C7.67844 6 7.34265 6.33579 7.34265 6.75V7.75C7.34265 8.57843 6.67108 9.25 5.84265 9.25C5.01422 9.25 4.34265 8.57843 4.34265 7.75V6.75Z" fill="var(--fill-0, #969696)"/>
</svg>
